<svg id="Grupo_42" data-name="Grupo 42" xmlns="http://www.w3.org/2000/svg" xmlns:xlink="http://www.w3.org/1999/xlink" width="263.333" height="37.004" viewBox="0 0 263.333 37.004">
  <defs>
    <clipPath id="clip-path">
      <rect id="Rectángulo_31" data-name="Rectángulo 31" width="263.333" height="37.004" fill="#024138"/>
    </clipPath>
  </defs>
  <g id="Grupo_19" data-name="Grupo 19" clip-path="url(#clip-path)">
    <path id="Trazado_7" data-name="Trazado 7" d="M607.5,46.8a14.9,14.9,0,0,1-7.254-1.657,10.38,10.38,0,0,1-4.448-4.711,16.444,16.444,0,0,1-1.51-7.285,16.486,16.486,0,0,1,1.51-7.286A11.207,11.207,0,0,1,600.25,21.1a14.1,14.1,0,0,1,7-1.657,16.494,16.494,0,0,1,4.405.568,12.464,12.464,0,0,1,3.972,1.918,1.643,1.643,0,0,1,.733,1.135,2.148,2.148,0,0,1-.215,1.264,1.6,1.6,0,0,1-.908.786,1.575,1.575,0,0,1-1.339-.261,9.956,9.956,0,0,0-3.066-1.482,12.951,12.951,0,0,0-3.543-.479c-2.937,0-5.138.872-6.649,2.661s-2.287,4.318-2.287,7.589.777,5.889,2.333,7.632,3.886,2.618,7,2.618a17.07,17.07,0,0,0,5.657-.961V35.326H608.5c-1.08,0-1.6-.525-1.6-1.525s.519-1.439,1.6-1.439h6.477a1.407,1.407,0,0,1,1.6,1.614v9.508a1.728,1.728,0,0,1-1.038,1.832,19.422,19.422,0,0,1-3.757,1.046,21.008,21.008,0,0,1-4.276.436Z" transform="translate(-504.758 -16.517)" fill="#024138"/>
    <path id="Trazado_8" data-name="Trazado 8" d="M774.759,92.9a1.7,1.7,0,0,1-1.9-1.918V75.894c0-1.264.6-1.918,1.814-1.918s1.814.654,1.814,1.918v1.614a5.776,5.776,0,0,1,2.247-2.618,7.9,7.9,0,0,1,3.671-1.047c.909-.086,1.424.436,1.51,1.525s-.433,1.7-1.6,1.832l-.691.086c-3.324.35-4.967,2.05-4.967,5.19V91.07a1.656,1.656,0,0,1-1.9,1.832Z" transform="translate(-656.423 -62.711)" fill="#024138"/>
    <path id="Trazado_9" data-name="Trazado 9" d="M864.881,93.77q-6.608,0-6.606-7.458V76.673a1.669,1.669,0,0,1,1.857-1.918,1.7,1.7,0,0,1,1.9,1.918v9.683a4.9,4.9,0,0,0,.909,3.272,3.577,3.577,0,0,0,2.849,1.046,4.435,4.435,0,0,0,3.453-1.439,5.526,5.526,0,0,0,1.338-3.839V76.67a1.7,1.7,0,0,1,1.9-1.918,1.669,1.669,0,0,1,1.857,1.918V91.763c0,1.264-.6,1.918-1.814,1.918s-1.814-.654-1.814-1.918V90.5a5.872,5.872,0,0,1-2.376,2.443,6.972,6.972,0,0,1-3.454.829" transform="translate(-728.97 -63.49)" fill="#024138"/>
    <path id="Trazado_10" data-name="Trazado 10" d="M987.374,100.02a1.669,1.669,0,0,1-1.857-1.918v-21.9c0-1.264.6-1.918,1.814-1.918a1.686,1.686,0,0,1,1.857,1.918v1.439a6.437,6.437,0,0,1,2.419-2.529,7.29,7.29,0,0,1,3.671-.915,7.43,7.43,0,0,1,7.039,4.493,12.137,12.137,0,0,1,.994,5.061,12.345,12.345,0,0,1-.994,5.1,7.308,7.308,0,0,1-7.039,4.45,7.689,7.689,0,0,1-3.628-.872,5.956,5.956,0,0,1-2.419-2.443v8.114a1.636,1.636,0,0,1-1.857,1.918Zm7-9.639a4.669,4.669,0,0,0,3.757-1.7,7.429,7.429,0,0,0,1.381-4.929,7.559,7.559,0,0,0-1.381-4.885,5,5,0,0,0-7.515,0,7.393,7.393,0,0,0-1.381,4.885,7.768,7.768,0,0,0,1.381,4.929,4.541,4.541,0,0,0,3.757,1.7" transform="translate(-837.042 -63.022)" fill="#024138"/>
    <path id="Trazado_11" data-name="Trazado 11" d="M1121.794,93.27A9.309,9.309,0,0,1,1117,92.092a7.935,7.935,0,0,1-3.109-3.314,10.922,10.922,0,0,1-1.124-5.061,10.757,10.757,0,0,1,1.124-5.061A7.915,7.915,0,0,1,1117,75.341a9.309,9.309,0,0,1,4.795-1.178,8.979,8.979,0,0,1,4.706,1.178,8.289,8.289,0,0,1,3.153,3.314,10.918,10.918,0,0,1,1.124,5.061,10.794,10.794,0,0,1-1.124,5.061,8.014,8.014,0,0,1-3.153,3.314,9.1,9.1,0,0,1-4.706,1.178m0-2.922a4.669,4.669,0,0,0,3.757-1.7,7.429,7.429,0,0,0,1.424-4.929,7.319,7.319,0,0,0-1.424-4.885,4.653,4.653,0,0,0-3.757-1.7,4.605,4.605,0,0,0-3.757,1.7,7.394,7.394,0,0,0-1.425,4.885,7.516,7.516,0,0,0,1.425,4.929,4.655,4.655,0,0,0,3.757,1.7" transform="translate(-945.12 -62.99)" fill="#024138"/>
    <path id="Trazado_12" data-name="Trazado 12" d="M1309.478,50.985a1.841,1.841,0,0,1-2.072-2.093V26.47a1.841,1.841,0,0,1,2.072-2.093h7.211c4.319,0,7.686,1.135,10.016,3.446,2.376,2.311,3.543,5.582,3.543,9.857s-1.167,7.589-3.543,9.857c-2.376,2.311-5.7,3.446-10.016,3.446Zm1.814-3.272h5.182c6.52,0,9.759-3.358,9.759-10.032s-3.239-9.989-9.759-9.989h-5.182Z" transform="translate(-1110.436 -20.704)" fill="#024138"/>
    <path id="Trazado_13" data-name="Trazado 13" d="M1480.3,93.011a7.809,7.809,0,0,1-3.411-.743,6.441,6.441,0,0,1-2.376-2.05,4.941,4.941,0,0,1-.862-2.922,4.743,4.743,0,0,1,1.037-3.228,6.139,6.139,0,0,1,3.41-1.7,30.983,30.983,0,0,1,6.391-.525h1.252v-.961a4.321,4.321,0,0,0-.909-3.1,4.026,4.026,0,0,0-2.935-.96,10.343,10.343,0,0,0-2.5.3,11.909,11.909,0,0,0-2.677,1,1.427,1.427,0,0,1-1.3.132,1.32,1.32,0,0,1-.69-.829,1.6,1.6,0,0,1,.042-1.178,1.647,1.647,0,0,1,.952-.915,15.992,15.992,0,0,1,3.238-1.135,15.333,15.333,0,0,1,3.024-.35c2.5,0,4.319.611,5.528,1.789s1.814,3.054,1.814,5.625V91c0,1.264-.6,1.918-1.771,1.918A1.675,1.675,0,0,1,1485.745,91V89.6a5.554,5.554,0,0,1-2.072,2.486,6.085,6.085,0,0,1-3.367.915Zm.734-2.7a4.441,4.441,0,0,0,3.367-1.439,5.078,5.078,0,0,0,1.339-3.621v-1h-1.252a27.122,27.122,0,0,0-4.276.261,4.363,4.363,0,0,0-2.2.872,2.309,2.309,0,0,0-.648,1.7,2.806,2.806,0,0,0,.994,2.311,3.7,3.7,0,0,0,2.677.915Z" transform="translate(-1251.635 -62.731)" fill="#024138"/>
    <path id="Trazado_14" data-name="Trazado 14" d="M1611.921,47.558a5.548,5.548,0,0,1-4.4-1.7,7.331,7.331,0,0,1-1.467-4.972V22.26a1.669,1.669,0,0,1,1.857-1.918,1.7,1.7,0,0,1,1.9,1.918v18.4c0,2.486.994,3.75,2.98,3.75a2.675,2.675,0,0,0,.6-.043,2.118,2.118,0,0,1,.519-.043.586.586,0,0,1,.648.261,2.26,2.26,0,0,1,.172,1.135,1.6,1.6,0,0,1-1.425,1.789,4.19,4.19,0,0,1-.733.043h-.651Z" transform="translate(-1364.087 -17.277)" fill="#024138"/>
    <path id="Trazado_15" data-name="Trazado 15" d="M1664.82,62.316a6.822,6.822,0,0,1-5.139-1.789A7.157,7.157,0,0,1,1658,55.38v-8.9h-2.247c-1.038,0-1.553-.479-1.553-1.482s.519-1.482,1.553-1.482H1658V39.636a1.7,1.7,0,0,1,1.9-1.918,1.669,1.669,0,0,1,1.857,1.918v3.882h4.362c1.037,0,1.553.479,1.553,1.482s-.519,1.482-1.553,1.482h-4.362v8.593a4.559,4.559,0,0,0,.819,3.011,3.314,3.314,0,0,0,2.763,1,4.692,4.692,0,0,0,1.166-.132,7.7,7.7,0,0,1,.863-.175.973.973,0,0,1,.691.261,1.674,1.674,0,0,1,.257,1.09,3.062,3.062,0,0,1-.215,1.09,1.052,1.052,0,0,1-.734.611,5.259,5.259,0,0,1-1.209.3,5.313,5.313,0,0,1-1.338.175Z" transform="translate(-1404.98 -32.036)" fill="#024138"/>
    <path id="Trazado_16" data-name="Trazado 16" d="M34.222,16.492V32.517a1.736,1.736,0,0,1-1.768,1.734,1.77,1.77,0,0,1-1.7-1.791V26.8a17,17,0,0,1-3.9,4.124,16.668,16.668,0,0,1-9.732,3.336A16.8,16.8,0,1,1,16.8.665H32.4a1.77,1.77,0,0,1,1.788,1.7A1.735,1.735,0,0,1,32.451,4.13H16.971A13.333,13.333,0,1,0,16.8,30.795a13.208,13.208,0,0,0,7.975-2.648,13.414,13.414,0,0,0,3.146-3.341A8.8,8.8,0,0,1,16.581,16.38a1.733,1.733,0,0,1,1.8-1.731,1.76,1.76,0,0,1,1.665,1.762,5.334,5.334,0,0,0,10.669-.031,1.732,1.732,0,0,1,1.914-1.722,1.819,1.819,0,0,1,1.593,1.831Z" transform="translate(-0.001 -0.565)" fill="#024138"/>
    <path id="Trazado_17" data-name="Trazado 17" d="M268.227,0h-14.87a1.807,1.807,0,0,0-1.788,1.805V31.918a1.784,1.784,0,0,0,1.791,1.805h14.784A16.862,16.862,0,1,0,268.227,0" transform="translate(-213.668)" fill="#024138"/>
  </g>
</svg>
