<svg xmlns="http://www.w3.org/2000/svg" width="4613.34" height="1965.943" viewBox="0 0 4613.34 1965.943">
  <g id="Group_236" data-name="Group 236" transform="translate(0.375 0.376)" opacity="0.306">
    <path id="Path_42" data-name="Path 42" d="M727.426,2339.837V449.22S1715.973,994.445,1999.5,2338.756" transform="translate(-727.426 -374.269)" fill="none" stroke="#baa385" stroke-miterlimit="10" stroke-width="0.75"/>
    <path id="Path_43" data-name="Path 43" d="M945.406,683.451A116.693,116.693,0,1,0,828.718,566.762,116.693,116.693,0,0,0,945.406,683.451" transform="translate(178.834 -366.718)" fill="none" stroke="#baa385" stroke-miterlimit="10" stroke-width="1"/>
    <path id="Path_44" data-name="Path 44" d="M1213.416,567.861A116.688,116.688,0,1,0,1330.1,684.549a116.694,116.694,0,0,0-116.689-116.688" transform="translate(2576.631 687.212)" fill="none" stroke="#baa385" stroke-miterlimit="10" stroke-width="1"/>
    <path id="Path_45" data-name="Path 45" d="M2797.161,1269.7s-85.923-828.018-961.566-828.018c0,0-922.744,0-979.89,977.939,20.441,754,662.729,980.526,970.728,979.074,209.316-1,669.832-22.212,1041.8-799.46S3369.749,525.031,3369.749,525.031l822.588,1816.86" transform="translate(420.286 -441.685)" fill="none" stroke="#baa385" stroke-miterlimit="10" stroke-width="0.75"/>
  </g>
</svg>
